<svg width="90" height="89" viewBox="0 0 90 89" fill="none" xmlns="http://www.w3.org/2000/svg">
<path d="M80.2284 58.6647C80.2284 59.2209 80.0429 59.7772 79.5609 60.2592C74.1837 65.6734 64.6162 75.3151 59.1279 80.8405C58.6459 81.3597 58.0154 81.5822 57.3849 81.5822C56.1612 81.5822 54.9746 80.618 54.9746 79.2089V66.2297C54.9746 60.8155 59.5729 56.3284 65.2096 56.3284C68.7324 56.2914 73.6274 56.2914 77.8179 56.2914C79.2642 56.2914 80.2284 57.4409 80.2284 58.6647Z" fill="black"/>
<path d="M80.2284 58.6647C80.2284 59.2209 80.0429 59.7772 79.5609 60.2592C74.1837 65.6734 64.6162 75.3151 59.1279 80.8405C58.6459 81.3597 58.0154 81.5822 57.3849 81.5822C56.1612 81.5822 54.9746 80.618 54.9746 79.2089V66.2297C54.9746 60.8155 59.5729 56.3284 65.2096 56.3284C68.7324 56.2914 73.6274 56.2914 77.8179 56.2914C79.2642 56.2914 80.2284 57.4409 80.2284 58.6647Z" fill="black"/>
<path d="M62.1703 7.41675H39.4382C37.3986 7.41675 35.7298 9.0855 35.7298 11.1251V24.1042C35.7298 30.2601 30.7607 35.2292 24.6048 35.2292H13.4798C11.4402 35.2292 9.77148 36.8979 9.77148 38.9376V63.5238C9.77148 73.4992 17.8557 81.5834 27.8311 81.5834H45.7053C47.7448 81.5834 49.4135 79.9146 49.4135 77.8751V66.2309C49.4135 57.7017 56.4965 50.7671 65.211 50.7671C67.1765 50.7301 71.9603 50.7301 76.5215 50.7301C78.5611 50.7301 80.2298 49.0984 80.2298 47.0217V25.4764C80.2298 15.5009 72.1456 7.41675 62.1703 7.41675ZM32.8373 63.0789H23.0473C21.527 63.0789 20.266 61.8179 20.266 60.2976C20.266 58.7401 21.527 57.4792 23.0473 57.4792H32.8373C34.432 57.4792 35.6185 58.7401 35.6185 60.2976C35.6185 61.8179 34.432 63.0789 32.8373 63.0789ZM43.1835 49.3209H23.0473C21.527 49.3209 20.266 48.0601 20.266 46.5396C20.266 44.9821 21.527 43.7214 23.0473 43.7214H43.1835C44.704 43.7214 46.002 44.9821 46.002 46.5396C46.002 48.0601 44.704 49.3209 43.1835 49.3209Z" fill="black"/>
<mask id="mask0_240_4895" style="mask-type:luminance" maskUnits="userSpaceOnUse" x="5" y="4" width="27" height="28">
<path d="M25.2901 4.81079H11.7904C8.21168 4.81079 5.31055 7.71191 5.31055 11.2907V24.7903C5.31055 28.369 8.21168 31.2702 11.7904 31.2702H25.2901C28.8688 31.2702 31.77 28.369 31.77 24.7903V11.2907C31.77 7.71191 28.8688 4.81079 25.2901 4.81079Z" fill="white"/>
</mask>
<g mask="url(#mask0_240_4895)">
<path d="M26.0994 30.6279C24.6623 28.6468 22.4973 27.3171 20.0805 26.9314C17.6636 26.5456 15.1924 27.1351 13.21 28.5704C12.4047 29.1598 11.6977 29.8721 11.1148 30.6818C11.0577 30.7621 10.9945 30.838 10.9258 30.9086H25.7323C25.9266 30.9086 26.1156 30.9086 26.2721 30.9086C26.2094 30.8184 26.1518 30.7246 26.0994 30.6279Z" fill="black"/>
<path d="M31.4085 10.1199C31.4085 9.37485 31.2618 8.63714 30.9764 7.94887C30.6912 7.26063 30.273 6.63534 29.746 6.10877C29.219 5.5822 28.5932 5.16467 27.9048 4.88005C27.2162 4.59543 26.4784 4.44931 25.7333 4.45001H10.6137C9.1113 4.45287 7.67138 5.05132 6.60955 6.11417C5.54772 7.17702 4.95064 8.61752 4.94922 10.1199V25.2395C4.95046 26.3181 5.25753 27.3741 5.83479 28.2852C10.0305 21.0168 14.129 13.9754 18.2652 6.77736L24.3401 17.3071C18.4489 16.9561 14.8094 19.1486 13.0761 24.084C15.0468 22.3304 17.5773 21.3351 20.2146 21.276C24.0971 21.1519 27.0185 22.356 29.3943 25.974C29.8469 26.6662 30.2527 27.3878 30.6094 28.1341C31.1307 27.2563 31.4068 26.255 31.4085 25.2342V10.1145V10.1199Z" fill="black"/>
</g>
</svg>
