<svg width="64" height="64" viewBox="0 0 64 64" fill="none" xmlns="http://www.w3.org/2000/svg">
<path d="M52.1847 35.0427C51.234 34.3454 50.666 33.2254 50.666 32.0454C50.666 30.8654 51.234 29.7454 52.1833 29.0494L56.5753 25.8294C57.2753 25.3147 57.5647 24.4094 57.2914 23.584C56.1607 20.1867 54.3727 17.088 51.9753 14.372C51.398 13.7214 50.4674 13.516 49.6714 13.8654L44.726 16.04C43.6487 16.5147 42.394 16.4467 41.3713 15.856C40.35 15.2667 39.6647 14.216 39.5353 13.044L38.9407 7.61471C38.846 6.75071 38.2033 6.04671 37.3527 5.87205C33.89 5.16405 30.2513 5.15205 26.7273 5.85871C25.8713 6.03071 25.2273 6.73471 25.1327 7.60272L24.5433 12.9974C24.414 14.1707 23.7287 15.2214 22.7047 15.8107C21.6833 16.4 20.4327 16.4707 19.3513 15.9947L14.3793 13.808C13.59 13.4587 12.6567 13.6614 12.0793 14.3107C9.67401 17.016 7.87801 20.1107 6.73535 23.5054C6.45801 24.3294 6.74601 25.24 7.44868 25.756L11.8127 28.956C12.7647 29.6547 13.3327 30.7747 13.3327 31.9547C13.3327 33.1347 12.7647 34.2547 11.8153 34.9507L7.42335 38.1707C6.72335 38.6854 6.43401 39.5907 6.70735 40.416C7.83801 43.8134 9.62601 46.912 12.0233 49.628C12.6007 50.28 13.534 50.4867 14.3273 50.1347L19.2727 47.9601C20.35 47.4854 21.6033 47.5534 22.6273 48.1441C23.6487 48.7334 24.334 49.784 24.4633 50.956L25.058 56.3854C25.1527 57.2494 25.7953 57.9534 26.646 58.128C28.398 58.4854 30.198 58.6667 31.9993 58.6667C33.7567 58.6667 35.53 58.4894 37.27 58.14C38.126 57.968 38.77 57.264 38.8647 56.396L39.4553 51.0014C39.5847 49.828 40.27 48.7774 41.294 48.188C42.3153 47.6 43.5673 47.5307 44.6473 48.004L49.6194 50.1907C50.4114 50.5414 51.342 50.3387 51.9193 49.688C54.3247 46.9827 56.1207 43.8881 57.2634 40.4934C57.5407 39.6694 57.2527 38.7587 56.55 38.2427L52.1847 35.0427ZM31.9993 41.3334C26.8447 41.3334 22.666 37.1547 22.666 32C22.666 26.8454 26.8447 22.6667 31.9993 22.6667C37.154 22.6667 41.3327 26.8454 41.3327 32C41.3327 37.1547 37.154 41.3334 31.9993 41.3334Z" fill="black"/>
</svg>
